<?xml version="1.0" encoding="UTF-8" standalone="no"?>
<!DOCTYPE svg PUBLIC "-//W3C//DTD SVG 1.1//EN" "http://www.w3.org/Graphics/SVG/1.1/DTD/svg11.dtd">
<svg width="100%" height="100%" viewBox="0 0 36 36" version="1.1" xmlns="http://www.w3.org/2000/svg" xmlns:xlink="http://www.w3.org/1999/xlink" xml:space="preserve" xmlns:serif="http://www.serif.com/" style="fill-rule:evenodd;clip-rule:evenodd;stroke-linejoin:round;stroke-miterlimit:2;">
    <g id="Layer_2" transform="matrix(1.125,0,0,1.125,0,0)">
        <path d="M32,5.333C32,2.39 29.61,0 26.667,0L5.333,0C2.39,0 0,2.39 0,5.333L0,26.667C0,29.61 2.39,32 5.333,32L26.667,32C29.61,32 32,29.61 32,26.667L32,5.333Z" style="fill:rgb(107,107,107);"/>
    </g>
    <g transform="matrix(1.0625,0,0,1.0625,-0.99997,0.124769)">
        <g opacity="0.64">
            <g transform="matrix(0.0624991,0,0,0.0624991,0.000477345,1.99558)">
                <path d="M353.696,316.997L465.002,316.997C481.57,316.997 495.001,330.427 495.001,346.996C495.001,363.564 481.571,376.995 465.002,376.995L255.011,376.995" style="fill:rgb(22,137,252);fill-rule:nonzero;"/>
            </g>
            <g transform="matrix(0.0624991,0,0,0.0624991,0.000477345,1.99558)">
                <path d="M331.148,207.477L418.423,163.84C433.246,156.428 439.252,138.411 431.84,123.588C424.428,108.779 406.426,102.759 391.588,110.171L281.52,165.205L285.636,200.128L331.148,207.477Z" style="fill:rgb(22,137,252);fill-rule:nonzero;"/>
            </g>
            <g transform="matrix(0.0624991,0,0,0.0624991,0.000477345,1.99558)">
                <circle cx="270.008" cy="122.005" r="44.998" style="fill:rgb(24,167,252);"/>
                <path d="M315.008,376.995L225.012,376.995C219.094,376.995 213.294,375.237 208.372,371.956L118.376,311.959C104.593,302.774 100.872,284.143 110.056,270.359C119.241,256.575 137.828,252.811 151.656,262.039L234.093,316.998L292.757,316.998C300.052,283.937 291.409,249.662 269.145,223.955L157.734,196.109C141.666,192.095 131.895,175.807 135.909,159.724C139.937,143.656 156.284,133.871 172.294,137.899L292.289,167.898C297.562,169.216 302.382,171.941 306.219,175.794C351.32,220.895 366.802,286.487 346.632,346.983L343.468,356.475C339.397,368.719 327.928,376.995 315.008,376.995Z" style="fill:rgb(24,167,252);fill-rule:nonzero;"/>
            </g>
        </g>
    </g>
</svg>
