<?xml version="1.0" encoding="UTF-8" standalone="no"?>
<!DOCTYPE svg PUBLIC "-//W3C//DTD SVG 1.1//EN" "http://www.w3.org/Graphics/SVG/1.1/DTD/svg11.dtd">
<svg width="100%" height="100%" viewBox="0 0 36 36" version="1.1" xmlns="http://www.w3.org/2000/svg" xmlns:xlink="http://www.w3.org/1999/xlink" xml:space="preserve" xmlns:serif="http://www.serif.com/" style="fill-rule:evenodd;clip-rule:evenodd;stroke-linejoin:round;stroke-miterlimit:2;">
    <g id="Layer_2" transform="matrix(1.125,0,0,1.125,0,0)">
        <path d="M32,5.333C32,2.39 29.61,0 26.667,0L5.333,0C2.39,0 0,2.39 0,5.333L0,26.667C0,29.61 2.39,32 5.333,32L26.667,32C29.61,32 32,29.61 32,26.667L32,5.333Z" style="fill:rgb(107,107,107);"/>
    </g>
    <g transform="matrix(0.589745,0,0,0.589745,-0.702338,0.923074)">
        <g transform="matrix(0.0571291,0,0,0.0571291,3.37505,2.25)">
            <path d="M456.344,511.991C451.192,511.991 446.203,509.6 442.985,505.312L406.257,456.34L369.529,505.312C363.225,513.725 349.116,513.725 342.812,505.312L306.084,456.34L269.356,505.312C263.052,513.725 248.943,513.725 242.639,505.312L205.911,456.34L169.183,505.312C162.879,513.725 148.77,513.725 142.466,505.312L105.738,456.34L69.01,505.312C64.695,511.067 57.195,513.426 50.369,511.132C43.554,508.86 38.956,502.48 38.956,495.295L38.956,217.04C38.96,97.363 136.328,0 256,0C375.672,0 473.04,97.363 473.04,217.04L473.04,495.296C473.04,502.481 468.442,508.862 461.627,511.133C459.888,511.714 458.105,511.991 456.344,511.991Z" style="fill:rgb(87,195,217);fill-rule:nonzero;"/>
        </g>
        <g transform="matrix(0.0571291,0,0,0.0571291,3.37505,2.25)">
            <path d="M269.358,505.312L306.086,456.34L342.814,505.312C349.118,513.725 363.227,513.725 369.531,505.312L406.259,456.34L442.987,505.312C446.205,509.6 451.193,511.991 456.346,511.991C458.107,511.991 459.89,511.714 461.628,511.133C468.443,508.861 473.041,502.481 473.041,495.296L473.041,217.04C473.04,97.363 375.672,0 256,0L256,511.622C261.103,511.622 266.206,509.518 269.358,505.312Z" style="fill:rgb(61,177,204);fill-rule:nonzero;"/>
        </g>
        <g transform="matrix(0.0571291,0,0,0.0571291,3.37505,2.25)">
            <path d="M172.523,300.517C135.697,300.517 105.742,270.561 105.742,233.736C105.742,196.911 135.698,166.955 172.523,166.955C209.348,166.955 239.304,196.911 239.304,233.736C239.304,270.561 209.349,300.517 172.523,300.517Z" style="fill:rgb(237,240,242);fill-rule:nonzero;"/>
        </g>
        <g transform="matrix(0.0571291,0,0,0.0571291,3.37505,2.25)">
            <path d="M339.477,300.517C302.651,300.517 272.696,270.561 272.696,233.736C272.696,196.911 302.652,166.955 339.477,166.955C376.302,166.955 406.258,196.911 406.258,233.736C406.258,270.561 376.302,300.517 339.477,300.517Z" style="fill:rgb(218,225,230);fill-rule:nonzero;"/>
        </g>
        <g transform="matrix(0.0571291,0,0,0.0571291,3.37505,2.25)">
            <circle cx="189.214" cy="250.43" r="16.695" style="fill:rgb(115,96,86);"/>
        </g>
        <g transform="matrix(0.0571291,0,0,0.0571291,3.37505,2.25)">
            <circle cx="356.168" cy="250.43" r="16.695" style="fill:rgb(102,82,71);"/>
        </g>
    </g>
    <g transform="matrix(0.0507812,0,0,0.0507812,6,4.01562)">
        <path d="M505.701,273.699C501.797,271 496.7,270.099 492.202,271.899L394.202,301.899C388.2,303.699 384,309.399 384,316L384,406C384,412.599 388.2,418.299 394.203,420.099L492.203,450.099C493.7,450.7 495.499,451 497,451C499.999,451 503.299,450.099 505.701,448.299C509.598,445.3 512,440.799 512,436L512,286C512,281.199 509.598,276.7 505.701,273.699Z" style="fill:rgb(38,37,40);fill-rule:nonzero;"/>
        <path d="M512,361L512,436C512,440.799 509.598,445.3 505.701,448.299C503.299,450.099 499.999,451 497,451C495.499,451 493.7,450.7 492.203,450.099L394.203,420.099C388.2,418.299 384,412.599 384,406L384,361L512,361Z" style="fill:rgb(26,25,28);fill-rule:nonzero;"/>
        <path d="M369,241L45,241C20.098,241 0,261.099 0,286L0,436C0,460.899 20.098,481 45,481L369,481C393.902,481 414,460.899 414,436L414,286C414,261.099 393.902,241 369,241Z" style="fill:rgb(59,59,63);fill-rule:nonzero;"/>
        <path d="M0,361L414,361L414,436C414,460.899 393.902,481 369,481L45,481C20.098,481 0,460.899 0,436L0,361Z" style="fill:rgb(44,43,46);fill-rule:nonzero;"/>
        <g>
            <circle cx="339" cy="316" r="15" style="fill:rgb(29,232,241);"/>
            <circle cx="279" cy="316" r="15" style="fill:rgb(29,232,241);"/>
        </g>
        <path d="M165,331L75,331C66.599,331 60,337.599 60,346L60,406C60,414.399 66.599,421 75,421L165,421C173.401,421 180,414.399 180,406L180,346C180,337.599 173.401,331 165,331Z" style="fill:rgb(254,219,65);fill-rule:nonzero;"/>
        <path d="M60,361L180,361L180,406C180,414.399 173.401,421 165,421L75,421C66.599,421 60,414.399 60,406L60,361Z" style="fill:rgb(252,191,41);fill-rule:nonzero;"/>
        <path d="M512,256L512,466C512,474.399 505.401,481 497,481C488.599,481 482,474.399 482,466L482,256C482,247.599 488.599,241 497,241C505.401,241 512,247.599 512,256Z" style="fill:rgb(56,56,60);fill-rule:nonzero;"/>
        <path d="M512,361L512,466C512,474.399 505.401,481 497,481C488.599,481 482,474.399 482,466L482,361L512,361Z" style="fill:rgb(38,37,40);fill-rule:nonzero;"/>
    </g>
</svg>
