<?xml version="1.0" encoding="UTF-8" standalone="no"?>
<!DOCTYPE svg PUBLIC "-//W3C//DTD SVG 1.1//EN" "http://www.w3.org/Graphics/SVG/1.1/DTD/svg11.dtd">
<svg width="100%" height="100%" viewBox="0 0 36 36" version="1.1" xmlns="http://www.w3.org/2000/svg" xmlns:xlink="http://www.w3.org/1999/xlink" xml:space="preserve" xmlns:serif="http://www.serif.com/" style="fill-rule:evenodd;clip-rule:evenodd;stroke-linejoin:round;stroke-miterlimit:2;">
    <g id="Layer_2" transform="matrix(1.125,0,0,1.125,0,0)">
        <path d="M32,5.333C32,2.39 29.61,0 26.667,0L5.333,0C2.39,0 0,2.39 0,5.333L0,26.667C0,29.61 2.39,32 5.333,32L26.667,32C29.61,32 32,29.61 32,26.667L32,5.333Z" style="fill:rgb(107,107,107);"/>
    </g>
    <g>
        <g transform="matrix(0.0571291,0,0,0.0571291,3.37505,2.25)">
            <path d="M456.344,511.991C451.192,511.991 446.203,509.6 442.985,505.312L406.257,456.34L369.529,505.312C363.225,513.725 349.116,513.725 342.812,505.312L306.084,456.34L269.356,505.312C263.052,513.725 248.943,513.725 242.639,505.312L205.911,456.34L169.183,505.312C162.879,513.725 148.77,513.725 142.466,505.312L105.738,456.34L69.01,505.312C64.695,511.067 57.195,513.426 50.369,511.132C43.554,508.86 38.956,502.48 38.956,495.295L38.956,217.04C38.96,97.363 136.328,0 256,0C375.672,0 473.04,97.363 473.04,217.04L473.04,495.296C473.04,502.481 468.442,508.862 461.627,511.133C459.888,511.714 458.105,511.991 456.344,511.991Z" style="fill:rgb(87,195,217);fill-rule:nonzero;"/>
        </g>
        <g transform="matrix(0.0571291,0,0,0.0571291,3.37505,2.25)">
            <path d="M269.358,505.312L306.086,456.34L342.814,505.312C349.118,513.725 363.227,513.725 369.531,505.312L406.259,456.34L442.987,505.312C446.205,509.6 451.193,511.991 456.346,511.991C458.107,511.991 459.89,511.714 461.628,511.133C468.443,508.861 473.041,502.481 473.041,495.296L473.041,217.04C473.04,97.363 375.672,0 256,0L256,511.622C261.103,511.622 266.206,509.518 269.358,505.312Z" style="fill:rgb(61,177,204);fill-rule:nonzero;"/>
        </g>
        <g transform="matrix(0.0571291,0,0,0.0571291,3.37505,2.25)">
            <path d="M172.523,300.517C135.697,300.517 105.742,270.561 105.742,233.736C105.742,196.911 135.698,166.955 172.523,166.955C209.348,166.955 239.304,196.911 239.304,233.736C239.304,270.561 209.349,300.517 172.523,300.517Z" style="fill:rgb(237,240,242);fill-rule:nonzero;"/>
        </g>
        <g transform="matrix(0.0571291,0,0,0.0571291,3.37505,2.25)">
            <path d="M339.477,300.517C302.651,300.517 272.696,270.561 272.696,233.736C272.696,196.911 302.652,166.955 339.477,166.955C376.302,166.955 406.258,196.911 406.258,233.736C406.258,270.561 376.302,300.517 339.477,300.517Z" style="fill:rgb(218,225,230);fill-rule:nonzero;"/>
        </g>
        <g transform="matrix(0.0571291,0,0,0.0571291,3.37505,2.25)">
            <circle cx="189.214" cy="250.43" r="16.695" style="fill:rgb(115,96,86);"/>
        </g>
        <g transform="matrix(0.0571291,0,0,0.0571291,3.37505,2.25)">
            <circle cx="356.168" cy="250.43" r="16.695" style="fill:rgb(102,82,71);"/>
        </g>
    </g>
</svg>
