<?xml version="1.0" encoding="UTF-8" standalone="no"?>
<!DOCTYPE svg PUBLIC "-//W3C//DTD SVG 1.1//EN" "http://www.w3.org/Graphics/SVG/1.1/DTD/svg11.dtd">
<svg width="100%" height="100%" viewBox="0 0 36 36" version="1.1" xmlns="http://www.w3.org/2000/svg" xmlns:xlink="http://www.w3.org/1999/xlink" xml:space="preserve" xmlns:serif="http://www.serif.com/" style="fill-rule:evenodd;clip-rule:evenodd;stroke-linejoin:round;stroke-miterlimit:2;">
    <g id="Layer_2" transform="matrix(1.125,0,0,1.125,0,0)">
        <path d="M32,5.333C32,2.39 29.61,0 26.667,0L5.333,0C2.39,0 0,2.39 0,5.333L0,26.667C0,29.61 2.39,32 5.333,32L26.667,32C29.61,32 32,29.61 32,26.667L32,5.333Z" style="fill:rgb(107,107,107);"/>
    </g>
    <g transform="matrix(1.0625,0,0,1.0625,1.00003,0.124769)">
        <g transform="matrix(0.0624991,0,0,0.0624991,0.000477345,1.99558)">
            <circle cx="45.018" cy="75.007" r="14.999" style="fill:rgb(254,219,65);"/>
        </g>
        <g transform="matrix(0.0624991,0,0,0.0624991,0.000477345,1.99558)">
            <circle cx="435.001" cy="47.008" r="14.999" style="fill:rgb(252,191,41);"/>
        </g>
        <g transform="matrix(0.0624991,0,0,0.0624991,0.000477345,1.99558)">
            <path d="M353.696,316.997L465.002,316.997C481.57,316.997 495.001,330.427 495.001,346.996C495.001,363.564 481.571,376.995 465.002,376.995L255.011,376.995" style="fill:rgb(22,137,252);fill-rule:nonzero;"/>
        </g>
        <g transform="matrix(0.0624991,0,0,0.0624991,0.000477345,1.99558)">
            <path d="M45.02,391.994C36.729,391.994 30.021,385.285 30.021,376.995C30.021,375.413 30.167,373.465 30.373,371.194C31.281,361.614 32.922,343.802 9.925,315.151C-1.003,301.558 -3.053,283.306 4.505,267.502C12.064,251.771 27.59,242 45.021,242C53.283,242 60.02,235.276 60.02,227.001C60.02,218.725 53.282,212.002 45.021,212.002C20.208,212.002 0.023,191.817 0.023,167.004C0.023,142.191 20.208,122.006 45.021,122.006L105.018,122.006C107.332,122.006 109.647,122.548 111.727,123.588L144.89,140.169C152.302,143.875 155.29,152.883 151.599,160.295C147.878,167.707 138.944,170.681 131.473,167.004L101.474,152.005L45.02,152.005C36.758,152.005 30.021,158.729 30.021,167.004C30.021,175.28 36.759,182.003 45.02,182.003C69.833,182.003 90.018,202.188 90.018,227.001C90.018,251.814 69.833,271.999 45.02,271.999C36.553,271.999 32.775,277.917 31.574,280.466C30.607,282.487 27.853,289.592 33.303,296.373C63.917,334.486 61.456,361.145 60.255,373.948L60.021,376.995C60.019,385.285 53.311,391.994 45.02,391.994Z" style="fill:rgb(254,168,50);fill-rule:nonzero;"/>
        </g>
        <g transform="matrix(0.0624991,0,0,0.0624991,0.000477345,1.99558)">
            <path d="M331.148,207.477L418.423,163.84C433.246,156.428 439.252,138.411 431.84,123.588C424.428,108.779 406.426,102.759 391.588,110.171L281.52,165.205L285.636,200.128L331.148,207.477Z" style="fill:rgb(22,137,252);fill-rule:nonzero;"/>
        </g>
        <g transform="matrix(0.0624991,0,0,0.0624991,0.000477345,1.99558)">
            <path d="M135.016,90.007C126.725,90.007 120.017,83.298 120.017,75.008L120.017,15.01C120.017,6.719 126.726,0.011 135.016,0.011C143.306,0.011 150.015,6.72 150.015,15.01L150.015,75.007C150.015,83.298 143.307,90.007 135.016,90.007Z" style="fill:rgb(254,219,65);fill-rule:nonzero;"/>
            <path d="M165.015,60.008L105.018,60.008C96.727,60.008 90.019,53.299 90.019,45.009C90.019,36.719 96.728,30.01 105.018,30.01L165.015,30.01C173.306,30.01 180.014,36.719 180.014,45.009C180.014,53.299 173.305,60.008 165.015,60.008Z" style="fill:rgb(254,219,65);fill-rule:nonzero;"/>
        </g>
        <g transform="matrix(0.0624991,0,0,0.0624991,0.000477345,1.99558)">
            <path d="M467.98,271.999C459.689,271.999 452.981,265.29 452.981,257L452.981,197.003C452.981,188.712 459.69,182.004 467.98,182.004C476.271,182.004 482.979,188.713 482.979,197.003L482.979,257C482.979,265.291 476.27,271.999 467.98,271.999Z" style="fill:rgb(252,191,41);fill-rule:nonzero;"/>
            <path d="M497.001,242.001L437.004,242.001C428.713,242.001 422.005,235.292 422.005,227.002C422.005,218.711 428.714,212.003 437.004,212.003L497.001,212.003C505.292,212.003 512,218.712 512,227.002C512,235.292 505.291,242.001 497.001,242.001Z" style="fill:rgb(252,191,41);fill-rule:nonzero;"/>
        </g>
        <g transform="matrix(0.0624991,0,0,0.0624991,0.000477345,1.99558)">
            <circle cx="270.008" cy="122.005" r="44.998" style="fill:rgb(24,167,252);"/>
            <path d="M315.008,376.995L225.012,376.995C219.094,376.995 213.294,375.237 208.372,371.956L118.376,311.959C104.593,302.774 100.872,284.143 110.056,270.359C119.241,256.575 137.828,252.811 151.656,262.039L234.093,316.998L292.757,316.998C300.052,283.937 291.409,249.662 269.145,223.955L157.734,196.109C141.666,192.095 131.895,175.807 135.909,159.724C139.937,143.656 156.284,133.871 172.294,137.899L292.289,167.898C297.562,169.216 302.382,171.941 306.219,175.794C351.32,220.895 366.802,286.487 346.632,346.983L343.468,356.475C339.397,368.719 327.928,376.995 315.008,376.995Z" style="fill:rgb(24,167,252);fill-rule:nonzero;"/>
        </g>
    </g>
</svg>
